<?xml version="1.0" encoding="utf-8"?>
<!-- Generator: Adobe Illustrator 26.0.2, SVG Export Plug-In . SVG Version: 6.00 Build 0)  -->
<svg version="1.1" id="レイヤー_1" xmlns="http://www.w3.org/2000/svg" xmlns:xlink="http://www.w3.org/1999/xlink" x="0px"
	 y="0px" viewBox="0 0 283.46 283.46" style="enable-background:new 0 0 283.46 283.46;" xml:space="preserve">
<style type="text/css">
	.st0{fill:#0E2D68;}
</style>
<g>
	<path class="st0" d="M188.25,9.32c0.86,0.3,1.72,0.61,2.57,0.93c52.97,19.84,91.02,74.26,91.47,130.82
		c0.45,56.56-36.73,111.58-89.38,132.26S75.58,279,37.41,237.25C5.02,201.81-6.46,149.19,6.23,103.13
		c12.58-45.64,50.67-82.15,95.77-95.4c10.3-3.03,20.93-4.9,31.64-5.6C152.09,0.91,170.79,3.2,188.25,9.32z M150.21,7.86
		c-15.53-1.1-31.27,0.09-46.02,4.98C60.66,27.24,35.86,71.8,37.05,116.23c0.23,8.52,1.43,17,3.55,25.26
		c4.29,16.75,12.37,32.56,23.74,45.61c0.34-3.39,0.77-7,2.95-9.61c1.36-1.63,3.27-2.69,4.85-4.09c4.09-3.63,5.64-10.42,2.26-14.72
		c-3.38-4.3-11.75-3.39-13.07,1.92c-4.26,0.87-8.9-2.45-9.45-6.76c-0.56-4.31,3.09-8.7,7.43-8.93c0.52-8.1,8.09-15.1,16.2-14.98
		c8.11,0.12,15.47,7.34,15.75,15.45c5.2-2.17,11.69,1.27,13.59,6.57c1.9,5.3-0.38,11.55-4.73,15.13c-1.97,1.62-4.76,2.79-7.05,1.66
		c-0.76-0.37-1.4-0.97-2.2-1.24c-2.37-0.81-4.81,2.05-4.23,4.49c0.58,2.44,3.19,3.96,5.69,4.11c2.05,0.12,5.87-0.18,7.02-2.19
		c0.53-0.93,0.7-2.02,1.06-3.03c1.22-3.52,4.84-6.06,8.57-6.01c-0.14-3.15,1.11-6.35,3.36-8.56c3.63-3.57,9.45-4.27,13.79-1.58
		c2.27,1.41,4.07,4.43,2.65,6.69c-0.63,1-1.73,1.58-2.71,2.23c-5.46,3.57-8.38,10.26-8.5,16.78s2.25,12.88,5.52,18.53
		c2.39,4.11,5.46,8.08,9.8,10.01c6.3,2.8,14.1,0.45,18.92-4.49c4.82-4.94,7-11.96,7.44-18.84c0.3-4.69-1.82-10.97-6.49-10.46
		c-3.41,1.71,0.71,7.95-2.08,10.55c-0.71,0.66-1.71,0.88-2.67,0.93c-3.23,0.17-6.5-1.5-8.27-4.21c-1.81-2.78-2-6.3-1.92-9.62
		c0.13-5.2,1.06-10.89,5-14.28c4.75-4.1,13.12-2.67,16.24,2.78c6.01-4.07,15.62-0.21,17.14,6.88c8.92,1.92,14.22,10.48,14.07,19.17
		c-0.01,0.31-0.01,0.63,0.13,0.9c0.21,0.42,0.69,0.61,1.13,0.77c1.7,0.62,3.41,1.25,5.11,1.87c-0.19-4.81-1.06-9.59-2.57-14.16
		c-0.2-0.62-0.44-1.26-0.93-1.7c-0.4-0.35-0.92-0.53-1.41-0.74c-6-2.52-8.2-10.27-7.36-16.22c0.51-3.62,1.98-7.27,4.81-9.59
		s7.2-2.96,10.18-0.83c0.14-8.3,7.55-15.81,15.84-16.06c8.3-0.25,16.15,6.8,16.79,15.07c0.22,2.88-1.23,6.58-4.11,6.42
		c-0.96-0.06-1.82-0.56-2.71-0.92c-5.54-2.25-12.64,2.18-13.06,8.14c-0.1,1.48,0.21,3.1,1.32,4.08c0.76,0.67,1.77,0.95,2.7,1.33
		c4.28,1.76,7.23,6.34,7.08,10.96c12.81-14.1,20.09-32.82,21.57-51.82s-2.68-38.22-10.6-55.55c-7.7-16.84-19.04-32.13-33.6-43.56
		c-7.46-5.85-15.78-10.7-24.81-13.59c-5.82-1.86-11.88-2.9-17.95-3.61C155.31,8.28,152.76,8.04,150.21,7.86z M253.98,82.24
		c7.8,35.75,0.92,74.47-18.72,105.34s-51.8,53.51-87.49,61.58c-17.7,4.01-36.18,4.4-54.07,1.42c-17.03-2.84-36.58-8.57-50.6-18.92
		c31.24,22.89,69.51,33.84,108.08,26.68c37.9-7.04,72.28-31.22,91.71-64.52S266.48,118.71,253.98,82.24z M252.11,126.44
		c-1.58,21.83-11.72,42.54-26.27,58.89c-14.55,16.35-33.32,28.54-53.27,37.55c-34.04,15.37-75.2,23.09-112.07,14.13
		c40.48,16.4,85.26,16.86,123.95-5.39C221.99,210.03,247.92,169.54,252.11,126.44z M66.85,250.3c15.51,7.11,29.82,14.03,47.01,16.76
		c16.77,2.66,34.05,2.18,50.61-1.64c33.15-7.65,63.03-28.61,81.51-57.18s25.35-64.41,18.74-97.79
		c5.4,49.03-17.72,100.18-58.09,128.52c-36.16,25.38-84.76,31.53-126.35,16.93C75.73,254.31,71.13,252.54,66.85,250.3z
		 M247.8,213.04c-16.05,23.48-39.35,42.02-66.07,51.79c-34.55,12.63-71.4,9.46-104.56-5.47c13.67,10.18,35.51,14.34,52.21,15.85
		c18.5,1.68,37.36-0.39,54.97-6.33c35.27-11.9,65.04-39.19,79.96-73.29s14.76-74.48-0.43-108.47
		c11.93,34.15,10.37,72.89-4.68,105.78C255.98,199.93,252.15,206.67,247.8,213.04z M95.2,193.64c-5.15-2.46-7.64-9.34-5.25-14.53
		c-2.9-0.86-5.46-3.04-6.42-5.9c-0.96-2.87-0.09-6.35,2.33-8.16c2.42-1.81,6.27-1.52,8.16,0.84c-0.32-2.56-2.13-4.88-4.53-5.82
		c-0.66-0.26-1.49-0.57-1.56-1.27c-0.11-1.07,1.51-1.28,2.52-0.92c3.01,1.08,5.58,3.35,7.01,6.21c1.04-2.07,0.79-4.74-0.63-6.57
		c-1.42-1.84-3.93-2.75-6.2-2.26c1.31-2.2,4.62-2.51,6.81-1.18c2.19,1.33,3.42,3.8,4.14,6.26c-0.07-3.4-0.21-7.02-2.15-9.82
		c-1.94-2.8-6.38-4.11-8.78-1.7c-0.65,0.65-1.07,1.48-1.6,2.23c-2.2,3.14-6.65,4.69-10.15,3.12c-3.5-1.57-5.24-6.42-3.14-9.64
		c2.1-3.21,7.75-3.27,9.56,0.11c0.36,0.67,0.56,1.5,0.24,2.19s-1.36,1.03-1.89,0.48c-0.26-0.27-0.34-0.66-0.48-1
		c-0.87-2.02-4.35-1.69-5.16,0.36c-0.81,2.05,0.91,4.5,3.08,4.89c2.17,0.39,4.39-0.91,5.59-2.76c2.83-4.34,0.19-10.69-4.41-13.05
		c-6.22-3.19-18.83-1.34-18.84,7.4c0,2.39,0.35,5.78-2.01,6.2c-0.59,0.1-1.18-0.06-1.77-0.1c-1.91-0.13-3.81,1.22-4.33,3.06
		c-0.52,1.84,0.4,3.98,2.09,4.87c0.5,0.26,1.13,0.41,1.61,0.12c0.4-0.25,0.58-0.73,0.78-1.16c2.21-4.89,9.6-5.47,13.81-2.14
		c4.21,3.33,5.72,9.07,5.93,14.43c0.11,2.85-0.23,6.05-2.41,7.88c-1.5,1.26-3.57,1.6-5.22,2.65c-3.45,2.22-4.19,7.24-2.58,11.02
		c1.61,3.77,4.99,6.48,8.48,8.64s7.24,3.96,10.3,6.7C87.47,200.44,90.58,195.33,95.2,193.64z M26.07,83
		c-1.68,2.67-2.79,5.65-3.79,8.64c-6.93,20.75-8.48,43.61-2.77,64.85c2.49,9.26,6.3,18.17,11.27,26.38
		c4.62,7.63,10.25,14.65,16.75,20.75c19.88,18.68,47.69,28.63,74.9,26.81c-4.77,0.35-10.16-0.78-14.83-1.69
		c-4.85-0.95-9.64-2.25-14.31-3.87c-9.35-3.25-18.24-7.8-26.32-13.51c-3.23-2.28-6.33-4.75-9.28-7.39
		c-14.2-12.74-24.74-29.48-30.27-47.73c-3.2-10.56-5.18-21.71-5.49-32.84c-0.32-11.35,1.72-22.31,3.29-33.49
		C25.55,87.61,25.84,85.31,26.07,83z M144.78,181.96c0.02,0.02,0.04,0.04,0.06,0.05c0.22-3.54,1.43-7.02,3.46-9.93
		c0.57-0.81,1.24-1.61,2.16-1.97c0.7-0.27,1.48-0.26,2.22-0.16c5.62,0.74,9.82,6.11,10.67,11.72c0.85,5.6-1.03,11.29-3.65,16.32
		c-5.01,9.61-13.32,17.99-23.8,20.77c7.23,0.71,14.57,0.35,21.7-1.06c0.09-1-0.48-1.93-0.7-2.9c-0.22-0.98,0.17-2.3,1.17-2.37
		c1.34-0.1,1.59,1.84,2.29,2.99c0.9,1.49,3.35,1.66,4.45,0.31s0.42-3.72-1.22-4.29c-0.74-0.26-1.64-0.23-2.17-0.81
		c-0.63-0.69-0.25-1.9,0.54-2.39c0.8-0.49,1.82-0.4,2.71-0.13c2.63,0.81,4.67,3.26,4.99,5.99c1.55-1.6,2.08-4.11,1.29-6.2
		s-2.85-3.63-5.07-3.8c1.7-2.23,5.53-1.47,7.25,0.75c1.72,2.22,1.94,5.22,2.08,8.02c2.04-1.67,4.22-3.58,4.64-6.18
		c0.42-2.6-2.2-5.64-4.59-4.52c-0.35,0.16-0.67,0.41-1.05,0.49c-1.35,0.31-2.26-1.47-2.15-2.85c0.12-1.38,0.7-2.83,0.17-4.11
		c-0.51-1.2-1.85-1.83-2.6-2.9c-0.75-1.07-0.16-3.15,1.09-2.77c0.39,0.12,0.67,0.45,0.92,0.77c1.42,1.78,2.84,3.55,4.26,5.33
		c1.49-2.09,0.59-5.03-0.73-7.23c-1.32-2.2-3.06-4.35-3.19-6.91c3.85,2.26,6.7,6.16,7.67,10.52c2.45-5.62-0.55-12.96-6.22-15.27
		c0.83-1.76,3.55-1.03,5.03,0.24c3.45,2.94,5.53,7.43,5.54,11.96c1.81-3.69,1.56-8.32-0.64-11.8c-2.2-3.48-6.26-5.69-10.38-5.65
		c-1.96,0.02-4.65,0.03-5.03-1.89c-0.39-1.95,2.22-2.97,4.2-3.19c-1.09-1.52-2.34-2.99-4.01-3.83s-3.85-0.89-5.28,0.31
		c-1.43,1.2-2.57,3.64-4.32,2.99c-1-0.37-1.32-1.58-1.75-2.56c-1-2.31-3.35-3.97-5.86-4.15c-3.55-0.26-12.5,5.79-6.83,9.26
		c1.37,0.84,3.7,1.64,3,3.09c-0.55,1.15-2.26,0.64-3.52,0.86c-1.9,0.34-2.8,2.76-2.26,4.61
		C141.88,179.33,143.36,180.7,144.78,181.96z M148.85,225.02c-0.01-0.02-0.03-0.03-0.04-0.05c-1.32,0-2.65-0.04-3.97,0.01
		c-1.42,0.05-2.85,0.28-4.27,0.27c-18.65-0.16-37.54-5.32-53.78-14.4c-12.61-7.05-23.87-16.55-32.76-27.96
		c-4.07-5.23-7.66-10.82-11.16-16.45c-3.55-5.71-7.01-11.49-9.79-17.61c-2.79-6.14-4.42-12.54-5.94-19.08
		c-0.41-1.79-0.69-7.26-2.09-8.27c0.19,0.14,0.25,2.8,0.28,3.08c0.15,1.82,0.09,3.65,0.25,5.47c0.31,3.46,0.93,6.87,1.52,10.29
		c0.24,1.39,0.48,2.77,0.77,4.15c4.06,19.34,13.44,37.63,27.16,51.88c1.22,1.27,2.48,2.5,3.76,3.71
		c14.27,13.33,32.47,22.37,51.68,25.83c6.49,1.17,13.11,1.64,19.7,1.43c3.3-0.1,6.59-0.38,9.86-0.82
		C140.82,226.39,148.49,224.58,148.85,225.02z M197.73,174.96c-0.73,0.88-1.13,1.83-0.77,2.92c0.57,1.67,2.73,2.17,4.48,1.93
		s3.5-0.93,5.23-0.58c2.13,0.44,3.68,2.42,4.25,4.51c0.57,2.1,0.35,4.32,0.13,6.49c3.3-2.48,5.87-5.91,7.32-9.76
		c1.42-3.77,1.18-9.02-2.51-10.63c-1.13-0.49-2.42-0.54-3.57-1c-2.99-1.19-4.28-4.84-4.04-8.05c0.33-4.59,3.18-8.92,7.27-11.04
		s9.26-1.97,13.21,0.4c1.1-1.85,1.79-4.93-0.26-5.57c-1.39-0.43-3.37,0.69-4.1-0.56c-0.22-0.37-0.2-0.82-0.22-1.25
		c-0.19-4.16-4.35-7.44-8.52-7.49c-4.17-0.05-8.03,2.56-10.44,5.97c-1.6,2.28-2.62,5.48-1.04,7.76c0.47,0.67,1.17,1.39,0.92,2.17
		c-0.4,1.22-2.21,0.67-3.34,0.05c-2.7-1.49-8.69-2.88-11.38-0.57c-2.55,2.2-2.5,9.02-2.17,12c0.23,2.12,0.8,4.26,2.11,5.94
		c1.31,1.68,3.48,2.79,5.57,2.41c2.09-0.38,3.79-2.33,3.88-4.45c0.09-2.12-1.44-4.21-3.49-4.76c-0.71,0.21-0.56,1.3-0.08,1.87
		s1.17,1.12,1.09,1.86c-0.08,0.74-0.93,1.15-1.67,1.16c-2.31,0.04-4.04-2.75-3.28-4.93c0.75-2.19,3.41-3.37,5.66-2.85
		c2.26,0.52,4.02,2.44,4.78,4.63c0.99,2.84,0.36,6.23-1.75,8.37C199.99,172.9,198.62,173.88,197.73,174.96z M139.86,213.88
		c-5.4,1.04-11.12-0.84-15.4-4.3c-4.29-3.45-7.25-8.33-9.19-13.48c-2.35-6.25-3.29-13.14-1.89-19.66
		c1.41-6.52,5.31-12.63,11.08-15.98c-0.43,0.25-5.66-2.38-7.92-1.27c-2.46,1.21-4.32,4.19-3.2,6.91c0.16,0.4,0.39,0.81,0.34,1.24
		c-0.16,1.5-2.42,0.94-3.88,0.54c-1.94-0.53-4.16,0.22-5.39,1.81c-1.22,1.59-1.37,3.94-0.36,5.67c0.86,1.48,2.41,2.43,3.39,3.84
		c1.9,2.73,0.96,6.99-1.91,8.67c-2.87,1.68-7.05,0.4-8.49-2.59c-0.6-1.25-0.74-2.79-0.04-3.99c0.69-1.2,2.34-1.85,3.56-1.18
		c1.21,0.67,1.4,2.73,0.2,3.41c0.42,1.77,3.42,1.67,4.14-0.01c0.72-1.67-0.51-3.68-2.18-4.41s-3.59-0.49-5.37-0.09
		c-1.15,0.26-2.33,0.59-3.24,1.34c-2.21,1.83-1.93,5.49-0.21,7.79c1.72,2.3,4.44,3.57,7.02,4.82c0.48,0.23,1,0.52,1.17,1.02
		c0.45,1.38-1.77,1.77-3.23,1.84c-4.4,0.21-7.36,6.03-4.95,9.72c0-3.09,1.77-6.12,4.46-7.64c2.69-1.52,6.21-1.46,8.85,0.15
		c-0.86,1.63-3.15,1.57-4.9,2.13c-3.72,1.2-5.18,6.66-2.54,9.55c0.5-2.26,1.05-4.62,2.62-6.33c1.56-1.7,4.48-2.39,6.18-0.82
		c-3.39,1.65-5.45,5.67-4.8,9.39c0.63,0.54,1.49,0.81,2.32,0.72c0.42-1.75,0.94-3.66,2.41-4.71c1.47-1.05,4.11-0.42,4.21,1.38
		c-2.01-0.19-2.99,2.79-1.85,4.45s3.31,2.19,5.29,2.56C124.18,217.87,133.14,218.52,139.86,213.88z M73.25,226.33
		c-1.12-0.48-2.24-0.99-3.34-1.51c-8.69-4.11-16.82-9.43-23.98-15.85c-7.31-6.56-12.63-14.2-18.24-22.13
		c-0.58-0.81-1.14-1.63-1.65-2.49c-2.09-3.59-4.45-7.52-5.76-11.48c-0.26-0.78-0.39-1.6-0.67-2.37c-0.51-1.42-1.08-2.81-1.65-4.21
		c-0.35-0.85-1.02-1.66-1.06-2.51c-0.09-1.7-1.06-3.1-1.31-4.72c-0.79-4.99-2.43-9.83-3.06-14.91c-0.68-5.49-0.93-11.02-0.8-16.55
		c0.27-11.11,2.05-22.16,4.93-32.88c0.17-0.64,0.35-1.28,0.53-1.93c-7.56,20.15-10.26,42.28-6.49,63.48
		c3.17,17.83,10.92,34.81,23.06,48.33c13.81,15.39,32.23,25.34,52.55,28.92c9.18,1.62,18.55,2.05,27.86,1.54
		C100.13,234.89,86.14,231.89,73.25,226.33z M79.32,236.18c-12.6-1.85-25.95-9.89-35.85-17.52c-10.73-8.27-18.93-17.82-25.56-29.57
		c-3.85-6.83-6.96-14.08-9.23-21.58c4.11,17.97,9.51,36.73,22.87,49.43C44.19,228.97,62.06,233.65,79.32,236.18z M203.42,197.39
		c-0.85-0.23-1.77-0.22-2.61,0.03c-0.64,0.18-1.24,0.5-1.89,0.63c-3.58,0.71-6.16-4.09-9.81-4.19c-2.23-0.06-4.26,1.61-6.1,2.66
		c-3.26,1.87-2.27,1.31-0.14,4.4c1.86,2.69,2.77,6.45,1,9.2C191.37,207.87,197.52,202.56,203.42,197.39z M200.63,194.2
		c2.12-0.06,3.6-0.8,4.65-2.14c0.68-0.86,1.29-1.93,1.46-2.99c0.22-1.38,0.04-2.85-0.09-4.26c-0.04-0.4-0.5-1.09-0.76-1.09
		c-0.91,0-1.82,0.24-2.86,0.42C205.63,188.27,204.15,191.4,200.63,194.2z M198.96,184.35c1.11,2.21,0.85,4.59,0.93,7.05
		c0.44-0.53,0.84-0.96,1.18-1.43c1.04-1.44,0.88-2.95,0.16-4.44C200.6,184.23,200.42,184.1,198.96,184.35z"/>
	<path class="st0" d="M167.3,49.22c-0.03,14.33-11.36,26.15-26.13,26.11c-14.01-0.03-26.02-11.35-25.69-26.69
		c0.3-13.85,11.5-25.45,26.11-25.38C156.17,23.34,167.19,34.96,167.3,49.22z"/>
	<path class="st0" d="M159.3,113.79c0.93-1.72,1.91-3.48,3.44-4.7c1.54-1.23,3.82-1.76,5.51-0.75c1.57,0.94,2.21,2.86,2.65,4.64
		c0.81,3.27,1.36,6.61,1.64,9.97c2.95-1.19,4.25-4.54,6.08-7.15c1.83-2.61,5.77-4.64,8-2.37c2.27,2.32,0.13,6.14-2.07,8.52
		c-3.2,3.46-6.58,6.76-10.11,9.88c-1.21,1.07-2.51,2.16-4.09,2.53c-1.58,0.37-3.5-0.22-4.12-1.71c-0.22-0.52-0.26-1.1-0.3-1.67
		c-0.31-4.57-0.62-9.14-0.93-13.71c-1.61,4.44-3.22,8.88-4.83,13.32c-0.44,1.22-0.95,2.53-2.06,3.21c-1.77,1.09-4.25-0.1-5.23-1.93
		c-0.99-1.83-0.89-4.04-0.71-6.12c0.18-2.08,0.41-4.24-0.36-6.18c-2.08,2-2.04,5.25-2.36,8.12c-0.33,2.87-1.81,6.24-4.69,6.41
		c-2.04,0.12-3.82-1.58-4.53-3.5c-0.71-1.92-0.61-4.02-0.61-6.07c0-5.53-0.77-11.07-2.28-16.39c-4.01,1.1-8.02,2.21-12.02,3.31
		c-0.59,0.16-1.21,0.33-1.82,0.21c-5.31-1.01,0.44-7.09,2.27-8.08c4.75-2.57,9.82-4.55,15.06-5.87c0.9-0.23,1.94-0.41,2.68,0.14
		c0.6,0.44,0.82,1.22,0.99,1.95c0.87,3.54,1.75,7.07,2.62,10.61c1.45-2.46,4.64-3.75,7.39-2.98c2.75,0.77,4.81,3.53,4.77,6.39
		C159.29,113.82,159.3,113.81,159.3,113.79z"/>
	<path class="st0" d="M127.31,130.37c-4.27,3-9.17,5.1-14.29,6.11c-2.49,0.49-5.2,0.7-7.45-0.47c-3.65-1.89-4.73-6.52-5.41-10.57
		c-0.56-3.35-1.13-6.7-1.69-10.06c-0.13-0.75-0.34-1.62-1.03-1.93c-0.85-0.39-1.75,0.3-2.6,0.69c-1.91,0.86-4.42-0.05-5.33-1.94
		c-2.42-5.02,6-8.07,9.07-9.81c1.05-0.59,2.24-1.21,3.4-0.9c1.69,0.45,2.29,2.49,2.6,4.2c1.07,5.79,2.14,11.59,3.22,17.38
		c0.38,2.04,1.01,4.4,2.95,5.15c1.26,0.49,2.68,0.09,3.95-0.35c2.66-0.94,5.45-2.3,6.66-4.85c0.95-2.01,0.77-4.46,1.95-6.34
		c2.03-3.24,7.28-2.95,10.01-0.27c2.73,2.68,3.48,6.78,3.63,10.6c0.08,2.11-0.01,4.32-1.07,6.15c-1.06,1.82-3.38,3.07-5.33,2.27
		C128.62,134.64,127.85,132.37,127.31,130.37z"/>
	<path class="st0" d="M136.73,201.1c-0.48,0.03-0.97-0.01-1.45-0.14c-1.22-0.34-2.24-1.22-2.97-2.25c-1.7-2.41-1.87-5.91-0.1-8.26
		c1.43-1.9,3.19-4.59,5.85-3.75c0.97,0.31,1.82,0.9,2.65,1.48c0.77,0.54,1.56,1.11,2.05,1.91c0.48,0.79,0.61,1.74,0.6,2.66
		c-0.03,2.11-0.81,4.19-2.15,5.82C140.1,199.93,138.44,200.98,136.73,201.1z M139.84,192.61c0.03-1.13-0.75-2.21-1.85-2.63
		c-0.7-0.27-1.7,0.07-2.24,0.74c-1.1,1.38-1.15,3.93-0.16,5.42c0.45,0.68,1.06,0.82,1.67,0.42
		C138.69,195.61,139.89,194.46,139.84,192.61z"/>
	<path class="st0" d="M189.28,107.07c-0.29,0.29-0.69,0.47-1.08,0.64c-1.07,0.46-2.14,0.92-3.21,1.38
		c-0.31,0.13-0.65,0.27-0.98,0.18c-0.72-0.19-0.8-1.24-1.41-1.68c-0.7-0.51-1.91-0.08-2.39-0.8c-0.15-0.22-0.17-0.5-0.19-0.77
		c-0.35-4.36-0.24-8.45,5.65-5.92c1.93,0.83,3.44,2.6,3.97,4.63c0.2,0.75,0.23,1.64-0.27,2.23
		C189.35,107.01,189.32,107.04,189.28,107.07z"/>
	<path class="st0" d="M182.46,137.95c-1.1-0.51-2.03-1.41-2.55-2.51c-1.47-3.09,1.3-8.39,5.22-6.15c0.45,0.25,0.8,0.65,1.22,0.94
		c0.8,0.57,1.85,0.79,2.49,1.53c0.64,0.74,0.72,1.83,0.49,2.78c-0.58,2.38-3.09,4.14-5.51,3.81
		C183.35,138.29,182.89,138.15,182.46,137.95z"/>
	<path class="st0" d="M126.57,183.69c-0.92-0.02-1.84-0.28-2.53-0.87c-0.81-0.7-1.2-1.76-1.39-2.81c-0.61-3.42,1.73-4.92,4.86-5.26
		c1.22-0.13,2.52,0.08,3.48,0.84c0.91,0.72,1.42,1.86,1.67,3c0.25,1.15,0.23,2.48-0.57,3.34c-0.53,0.57-1.3,0.83-2.04,1.06
		c-1,0.32-2.01,0.64-3.06,0.7C126.85,183.69,126.71,183.69,126.57,183.69z M125.5,178.97c-0.02,0.1-0.03,0.21-0.03,0.32
		c-0.02,0.65,0.35,1.3,0.93,1.61c0.57,0.31,1.32,0.26,1.85-0.12c0.3-0.21,0.53-0.52,0.82-0.74c0.17-0.13,0.37-0.23,0.52-0.38
		c0.45-0.45,0.37-1.27-0.08-1.73c-0.44-0.46-1.14-0.61-1.78-0.53C126.65,177.53,125.69,177.9,125.5,178.97z"/>
</g>
</svg>
